<svg width="163" height="50" viewBox="0 0 163 50" fill="none" xmlns="http://www.w3.org/2000/svg">
<path d="M71.5766 0V44.6726H64.9695V50L61.4129 48.2292V44.6726H47.1719V0H71.5766ZM68.0201 3.55655H50.7284V41.131H68.0201V3.55655Z" fill="white"/>
<path d="M11.369 25.1638C11.369 24.1072 11.6369 23.8394 12.6935 23.8394H12.9613C14.0179 23.8394 14.2857 24.1072 14.2857 25.1638V30.5507C14.2857 33.1697 13.5268 34.2858 11.25 34.6727C10.4911 34.8215 9.65774 34.881 8.75 34.881C2.58929 34.881 0 32.7084 0 27.3959V22.6786C0 17.8423 2.82738 15.134 8.60119 15.134C10.1637 15.134 11.5476 15.3721 12.8125 15.8334C13.8393 16.2203 13.9583 16.3691 13.9583 17.3364V17.7828C13.9583 18.8394 13.7202 19.0774 12.7827 18.7501C11.4881 18.2441 10.1042 18.006 8.63095 18.006C4.65774 18.006 3.18452 19.3304 3.18452 22.8721V27.5894C3.18452 30.5655 4.71726 31.9495 8.72024 31.9495C9.47917 31.9495 10.0149 31.9197 10.3423 31.8602C11.0268 31.7709 11.369 31.2947 11.369 30.506V25.1489V25.1638Z" fill="white"/>
<path d="M34.6132 25.1638C34.6132 24.1072 34.881 23.8393 35.9376 23.8393H36.2055C37.262 23.8393 37.5299 24.1072 37.5299 25.1638V30.5507C37.5299 33.1697 36.7709 34.2858 34.4941 34.6727C33.7352 34.8215 32.9019 34.881 31.9941 34.881C25.8334 34.881 23.2441 32.7084 23.2441 27.3959V22.6786C23.2441 17.8423 26.0715 15.134 31.8453 15.134C33.4078 15.134 34.7918 15.3721 36.0566 15.8334C37.0834 16.2203 37.2025 16.3691 37.2025 17.3364V17.7828C37.2025 18.8393 36.9644 19.0774 36.0269 18.7501C34.7322 18.2441 33.3483 18.006 31.8751 18.006C27.9019 18.006 26.4287 19.3304 26.4287 22.8721V27.5893C26.4287 30.5655 27.9614 31.9495 31.9644 31.9495C32.7233 31.9495 33.259 31.9197 33.5864 31.8602C34.2709 31.7709 34.6132 31.2947 34.6132 30.506V25.1489V25.1638Z" fill="white"/>
<path d="M80.625 16.7708C80.625 15.6845 80.8929 15.4167 81.9792 15.4167H82.3661C83.4524 15.4167 83.7202 15.6845 83.7202 16.7708V28.1697C83.7202 30.8482 85.1339 31.9643 88.0804 31.9643C91.0268 31.9643 92.4405 30.8482 92.4405 28.1697V16.7708C92.4405 15.6845 92.7083 15.4167 93.7946 15.4167H94.2113C95.2976 15.4167 95.5655 15.6845 95.5655 16.7708V28.1697C95.5655 32.6786 92.8869 34.881 88.0804 34.881C83.2738 34.881 80.625 32.6488 80.625 28.1697V16.7708Z" fill="white"/>
<path d="M108.511 26.1311V30.521C108.511 31.2501 108.898 31.637 109.657 31.637H117.112C118.169 31.637 118.437 31.9049 118.437 32.9614V33.2293C118.437 34.2858 118.169 34.5537 117.112 34.5537H108.779C106.428 34.5537 105.416 33.5567 105.416 31.1906V18.765C105.416 16.4138 106.413 15.4019 108.779 15.4019H117.112C118.169 15.4019 118.437 15.6698 118.437 16.7263V16.9942C118.437 18.0507 118.169 18.3186 117.112 18.3186H109.657C108.898 18.3186 108.511 18.7055 108.511 19.4347V23.1995H115.937C116.993 23.1995 117.261 23.4674 117.261 24.5239V24.7918C117.261 25.8483 116.993 26.1162 115.937 26.1162H108.511V26.1311Z" fill="white"/>
<path d="M126.98 32.2471C126.98 31.1905 127.277 30.9227 128.185 31.2501C129.688 31.7263 131.28 31.9643 132.962 31.9643C135.67 31.9643 136.757 31.3989 136.757 29.8959C136.757 29.3007 136.578 28.8393 136.221 28.4822C135.893 28.1251 135.254 27.6638 134.212 27.0388L130.149 24.5983C128.17 23.4227 127.203 21.8304 127.203 19.7917C127.203 16.637 129.271 15.134 133.706 15.134C135.209 15.134 136.593 15.3423 137.798 15.7292C138.855 16.0566 139.063 16.2649 139.063 17.2024V17.7084C139.063 18.7649 138.855 18.9435 137.887 18.6757C136.652 18.259 135.268 18.0507 133.706 18.0507C131.355 18.0507 130.373 18.5566 130.373 19.881C130.373 20.8185 130.819 21.3245 132.233 22.1727L136.414 24.7322C138.884 26.2352 139.926 27.5298 139.926 29.881C139.926 33.2143 137.694 34.8513 132.887 34.8513C131.117 34.8513 129.524 34.6132 128.14 34.1667C127.173 33.8393 126.965 33.631 126.965 32.6935V32.2173L126.98 32.2471Z" fill="white"/>
<path d="M147.902 16.7411C147.902 15.6845 148.169 15.4167 149.226 15.4167H161.503C162.559 15.4167 162.827 15.6845 162.827 16.7411V17.0089C162.827 18.0655 162.559 18.3333 161.503 18.3333H156.934V33.1994C156.934 34.2857 156.666 34.5536 155.58 34.5536H155.164C154.077 34.5536 153.809 34.2857 153.809 33.1994V18.3185H149.211C148.155 18.3185 147.887 18.0506 147.887 16.9941V16.7262L147.902 16.7411Z" fill="white"/>
</svg>
